<svg width="100" height="35" viewBox="0 0 100 35" fill="none" xmlns="http://www.w3.org/2000/svg">
<g clip-path="url(#clip0_54_100)">
<path d="M-0.522219 25V-0.200002H6.46178L16.5418 16.252H12.8698L22.6618 -0.200002H29.6458L29.7178 25H21.9778L21.9058 11.464H23.1298L16.4338 22.732H12.6898L5.70578 11.464H7.21778V25H-0.522219Z" fill="#EB5858"/>
<path d="M45.4894 25V21.508L44.9134 20.572V13.948C44.9134 12.988 44.6134 12.256 44.0134 11.752C43.4374 11.248 42.4894 10.996 41.1694 10.996C40.2814 10.996 39.3814 11.14 38.4694 11.428C37.5574 11.692 36.7774 12.064 36.1294 12.544L33.5374 7.18C34.6894 6.46 36.0694 5.908 37.6774 5.524C39.2854 5.14 40.8574 4.948 42.3934 4.948C45.7774 4.948 48.3934 5.704 50.2414 7.216C52.1134 8.728 53.0494 11.128 53.0494 14.416V25H45.4894ZM39.9094 25.36C38.3014 25.36 36.9574 25.084 35.8774 24.532C34.7974 23.98 33.9814 23.248 33.4294 22.336C32.8774 21.4 32.6014 20.368 32.6014 19.24C32.6014 17.968 32.9254 16.888 33.5734 16C34.2214 15.112 35.2054 14.44 36.5254 13.984C37.8694 13.528 39.5614 13.3 41.6014 13.3H45.7054V17.224H42.8974C42.0334 17.224 41.3974 17.368 40.9894 17.656C40.6054 17.92 40.4134 18.328 40.4134 18.88C40.4134 19.336 40.5814 19.72 40.9174 20.032C41.2774 20.32 41.7574 20.464 42.3574 20.464C42.9094 20.464 43.4134 20.32 43.8694 20.032C44.3494 19.72 44.6974 19.24 44.9134 18.592L45.9574 21.004C45.6454 22.468 44.9854 23.56 43.9774 24.28C42.9694 25 41.6134 25.36 39.9094 25.36ZM60.5341 32.344C59.4541 32.344 58.3501 32.176 57.2221 31.84C56.1181 31.528 55.2301 31.108 54.5581 30.58L57.2581 25C57.6661 25.312 58.1221 25.564 58.6261 25.756C59.1541 25.948 59.6581 26.044 60.1381 26.044C60.8581 26.044 61.4101 25.888 61.7941 25.576C62.1781 25.288 62.4901 24.844 62.7301 24.244L63.5581 22.156L64.1341 21.364L70.4341 5.308H78.1381L70.0381 25.396C69.3181 27.196 68.4781 28.6 67.5181 29.608C66.5821 30.616 65.5261 31.324 64.3501 31.732C63.1981 32.14 61.9261 32.344 60.5341 32.344ZM62.4421 25.9L53.8741 5.308H62.2261L68.1301 20.644L62.4421 25.9ZM89.7267 25.36C87.3267 25.36 85.2267 24.916 83.4267 24.028C81.6507 23.14 80.2707 21.928 79.2867 20.392C78.3027 18.832 77.8107 17.08 77.8107 15.136C77.8107 13.144 78.2907 11.38 79.2507 9.844C80.2347 8.308 81.5667 7.108 83.2467 6.244C84.9507 5.38 86.8587 4.948 88.9707 4.948C90.9147 4.948 92.7027 5.332 94.3347 6.1C95.9907 6.868 97.3107 8.008 98.2947 9.52C99.3027 11.032 99.8067 12.904 99.8067 15.136C99.8067 15.424 99.7947 15.748 99.7707 16.108C99.7467 16.444 99.7227 16.756 99.6987 17.044H84.5427V13.12H95.3787L92.3187 14.164C92.3187 13.396 92.1747 12.748 91.8867 12.22C91.6227 11.668 91.2507 11.248 90.7707 10.96C90.2907 10.648 89.7147 10.492 89.0427 10.492C88.3707 10.492 87.7827 10.648 87.2787 10.96C86.7987 11.248 86.4267 11.668 86.1627 12.22C85.8987 12.748 85.7667 13.396 85.7667 14.164V15.388C85.7667 16.228 85.9347 16.948 86.2707 17.548C86.6067 18.148 87.0867 18.604 87.7107 18.916C88.3347 19.204 89.0907 19.348 89.9787 19.348C90.8907 19.348 91.6347 19.228 92.2107 18.988C92.8107 18.748 93.4347 18.388 94.0827 17.908L98.3307 22.192C97.3707 23.224 96.1827 24.016 94.7667 24.568C93.3747 25.096 91.6947 25.36 89.7267 25.36Z" fill="#4E4E4E"/>
<path d="M-0.606859 32V27.1H2.01114C2.68781 27.1 3.18714 27.2213 3.50914 27.464C3.83114 27.702 3.99214 28.0077 3.99214 28.381C3.99214 28.6283 3.92214 28.85 3.78214 29.046C3.64681 29.2373 3.44847 29.389 3.18714 29.501C2.92581 29.613 2.60381 29.669 2.22114 29.669L2.36114 29.291C2.74381 29.291 3.07281 29.3447 3.34814 29.452C3.62814 29.5593 3.84281 29.7157 3.99214 29.921C4.14614 30.1217 4.22314 30.3643 4.22314 30.649C4.22314 31.0737 4.04581 31.405 3.69114 31.643C3.34114 31.881 2.82781 32 2.15114 32H-0.606859ZM1.01714 30.845H2.01114C2.19314 30.845 2.32847 30.8123 2.41714 30.747C2.51047 30.6817 2.55714 30.586 2.55714 30.46C2.55714 30.334 2.51047 30.2383 2.41714 30.173C2.32847 30.1077 2.19314 30.075 2.01114 30.075H0.905141V28.983H1.78714C1.97381 28.983 2.10914 28.9527 2.19314 28.892C2.28181 28.8267 2.32614 28.7357 2.32614 28.619C2.32614 28.4977 2.28181 28.4067 2.19314 28.346C2.10914 28.2853 1.97381 28.255 1.78714 28.255H1.01714V30.845ZM6.8722 32.07C6.40554 32.07 5.9972 31.9837 5.6472 31.811C5.30187 31.6383 5.03354 31.4027 4.8422 31.104C4.65087 30.8007 4.5552 30.46 4.5552 30.082C4.5552 29.6947 4.64854 29.3517 4.8352 29.053C5.02654 28.7543 5.28554 28.521 5.6122 28.353C5.94354 28.185 6.31454 28.101 6.7252 28.101C7.1032 28.101 7.45087 28.1757 7.7682 28.325C8.0902 28.4743 8.34687 28.696 8.5382 28.99C8.7342 29.284 8.8322 29.648 8.8322 30.082C8.8322 30.138 8.82987 30.201 8.8252 30.271C8.82054 30.3363 8.81587 30.397 8.8112 30.453H5.8642V29.69H7.9712L7.3762 29.893C7.3762 29.7437 7.3482 29.6177 7.2922 29.515C7.24087 29.4077 7.16854 29.326 7.0752 29.27C6.98187 29.2093 6.86987 29.179 6.7392 29.179C6.60854 29.179 6.4942 29.2093 6.3962 29.27C6.30287 29.326 6.23054 29.4077 6.1792 29.515C6.12787 29.6177 6.1022 29.7437 6.1022 29.893V30.131C6.1022 30.2943 6.13487 30.4343 6.2002 30.551C6.26554 30.6677 6.35887 30.7563 6.4802 30.817C6.60154 30.873 6.74854 30.901 6.9212 30.901C7.09854 30.901 7.2432 30.8777 7.3552 30.831C7.47187 30.7843 7.5932 30.7143 7.7192 30.621L8.5452 31.454C8.35854 31.6547 8.12754 31.8087 7.8522 31.916C7.58154 32.0187 7.25487 32.07 6.8722 32.07ZM11.5459 32V31.321L11.4339 31.139V29.851C11.4339 29.6643 11.3756 29.522 11.2589 29.424C11.1469 29.326 10.9626 29.277 10.7059 29.277C10.5332 29.277 10.3582 29.305 10.1809 29.361C10.0036 29.4123 9.85191 29.4847 9.72591 29.578L9.22191 28.535C9.44591 28.395 9.71424 28.2877 10.0269 28.213C10.3396 28.1383 10.6452 28.101 10.9439 28.101C11.6019 28.101 12.1106 28.248 12.4699 28.542C12.8339 28.836 13.0159 29.3027 13.0159 29.942V32H11.5459ZM10.4609 32.07C10.1482 32.07 9.88691 32.0163 9.67691 31.909C9.46691 31.8017 9.30824 31.6593 9.20091 31.482C9.09357 31.3 9.03991 31.0993 9.03991 30.88C9.03991 30.6327 9.10291 30.4227 9.22891 30.25C9.35491 30.0773 9.54624 29.9467 9.80291 29.858C10.0642 29.7693 10.3932 29.725 10.7899 29.725H11.5879V30.488H11.0419C10.8739 30.488 10.7502 30.516 10.6709 30.572C10.5962 30.6233 10.5589 30.7027 10.5589 30.81C10.5589 30.8987 10.5916 30.9733 10.6569 31.034C10.7269 31.09 10.8202 31.118 10.9369 31.118C11.0442 31.118 11.1422 31.09 11.2309 31.034C11.3242 30.9733 11.3919 30.88 11.4339 30.754L11.6369 31.223C11.5762 31.5077 11.4479 31.72 11.2519 31.86C11.0559 32 10.7922 32.07 10.4609 32.07ZM15.2956 32.07C14.9923 32.07 14.7169 32.0093 14.4696 31.888C14.2269 31.762 14.0356 31.5683 13.8956 31.307C13.7556 31.041 13.6856 30.7003 13.6856 30.285V28.171H15.2676V30.012C15.2676 30.2827 15.3119 30.4717 15.4006 30.579C15.4893 30.6863 15.6106 30.74 15.7646 30.74C15.8579 30.74 15.9443 30.7167 16.0236 30.67C16.1076 30.6187 16.1753 30.537 16.2266 30.425C16.2779 30.3083 16.3036 30.1567 16.3036 29.97V28.171H17.8856V32H16.3806V30.894L16.6816 31.195C16.5463 31.4937 16.3526 31.7153 16.1006 31.86C15.8533 32 15.5849 32.07 15.2956 32.07ZM20.4353 32.07C19.908 32.07 19.4973 31.944 19.2033 31.692C18.9093 31.4353 18.7623 31.0433 18.7623 30.516V27.31H20.3443V30.502C20.3443 30.6187 20.3746 30.7097 20.4353 30.775C20.5006 30.8403 20.58 30.873 20.6733 30.873C20.8086 30.873 20.9276 30.838 21.0303 30.768L21.4083 31.867C21.287 31.937 21.14 31.9883 20.9673 32.021C20.7993 32.0537 20.622 32.07 20.4353 32.07ZM18.2373 29.536V28.381H21.1283V29.536H18.2373ZM22.5787 33.428C22.3687 33.428 22.154 33.3953 21.9347 33.33C21.72 33.2693 21.5473 33.1877 21.4167 33.085L21.9417 32C22.021 32.0607 22.1097 32.1097 22.2077 32.147C22.3103 32.1843 22.4083 32.203 22.5017 32.203C22.6417 32.203 22.749 32.1727 22.8237 32.112C22.8983 32.056 22.959 31.9697 23.0057 31.853L23.1667 31.447L23.2787 31.293L24.5037 28.171H26.0017L24.4267 32.077C24.2867 32.427 24.1233 32.7 23.9367 32.896C23.7547 33.092 23.5493 33.2297 23.3207 33.309C23.0967 33.3883 22.8493 33.428 22.5787 33.428ZM22.9497 32.175L21.2837 28.171H22.9077L24.0557 31.153L22.9497 32.175Z" fill="#EB5858"/>
<path d="M30.2182 32.112C29.8075 32.112 29.4109 32.0653 29.0282 31.972C28.6455 31.8787 28.3305 31.7573 28.0832 31.608L28.6152 30.404C28.8485 30.5393 29.1075 30.649 29.3922 30.733C29.6815 30.8123 29.9615 30.852 30.2322 30.852C30.3909 30.852 30.5145 30.8427 30.6032 30.824C30.6965 30.8007 30.7642 30.7703 30.8062 30.733C30.8482 30.691 30.8692 30.642 30.8692 30.586C30.8692 30.4973 30.8202 30.4273 30.7222 30.376C30.6242 30.3247 30.4935 30.2827 30.3302 30.25C30.1715 30.2127 29.9965 30.1753 29.8052 30.138C29.6139 30.096 29.4202 30.0423 29.2242 29.977C29.0329 29.9117 28.8555 29.8253 28.6922 29.718C28.5335 29.6107 28.4052 29.4707 28.3072 29.298C28.2092 29.1207 28.1602 28.9013 28.1602 28.64C28.1602 28.3367 28.2442 28.0613 28.4122 27.814C28.5849 27.562 28.8392 27.3613 29.1752 27.212C29.5159 27.0627 29.9382 26.988 30.4422 26.988C30.7735 26.988 31.1002 27.023 31.4222 27.093C31.7442 27.163 32.0335 27.2703 32.2902 27.415L31.7932 28.612C31.5505 28.4907 31.3149 28.3997 31.0862 28.339C30.8622 28.2783 30.6429 28.248 30.4282 28.248C30.2695 28.248 30.1435 28.262 30.0502 28.29C29.9569 28.318 29.8892 28.3553 29.8472 28.402C29.8099 28.4487 29.7912 28.5 29.7912 28.556C29.7912 28.64 29.8402 28.7077 29.9382 28.759C30.0362 28.8057 30.1645 28.8453 30.3232 28.878C30.4865 28.9107 30.6639 28.9457 30.8552 28.983C31.0512 29.0203 31.2449 29.0717 31.4362 29.137C31.6275 29.2023 31.8025 29.2887 31.9612 29.396C32.1245 29.5033 32.2552 29.6433 32.3532 29.816C32.4512 29.9887 32.5002 30.2033 32.5002 30.46C32.5002 30.7587 32.4139 31.034 32.2412 31.286C32.0732 31.5333 31.8212 31.734 31.4852 31.888C31.1492 32.0373 30.7269 32.112 30.2182 32.112ZM35.2598 32V31.321L35.1478 31.139V29.851C35.1478 29.6643 35.0894 29.522 34.9728 29.424C34.8608 29.326 34.6764 29.277 34.4198 29.277C34.2471 29.277 34.0721 29.305 33.8948 29.361C33.7174 29.4123 33.5658 29.4847 33.4398 29.578L32.9358 28.535C33.1598 28.395 33.4281 28.2877 33.7408 28.213C34.0534 28.1383 34.3591 28.101 34.6578 28.101C35.3158 28.101 35.8244 28.248 36.1838 28.542C36.5478 28.836 36.7298 29.3027 36.7298 29.942V32H35.2598ZM34.1748 32.07C33.8621 32.07 33.6008 32.0163 33.3908 31.909C33.1808 31.8017 33.0221 31.6593 32.9148 31.482C32.8074 31.3 32.7538 31.0993 32.7538 30.88C32.7538 30.6327 32.8168 30.4227 32.9428 30.25C33.0688 30.0773 33.2601 29.9467 33.5168 29.858C33.7781 29.7693 34.1071 29.725 34.5038 29.725H35.3018V30.488H34.7558C34.5878 30.488 34.4641 30.516 34.3848 30.572C34.3101 30.6233 34.2728 30.7027 34.2728 30.81C34.2728 30.8987 34.3054 30.9733 34.3708 31.034C34.4408 31.09 34.5341 31.118 34.6508 31.118C34.7581 31.118 34.8561 31.09 34.9448 31.034C35.0381 30.9733 35.1058 30.88 35.1478 30.754L35.3508 31.223C35.2901 31.5077 35.1618 31.72 34.9658 31.86C34.7698 32 34.5061 32.07 34.1748 32.07ZM37.4135 32V26.806H38.9955V32H37.4135ZM41.7197 32.07C41.2857 32.07 40.9007 31.986 40.5647 31.818C40.2333 31.6453 39.972 31.4097 39.7807 31.111C39.5893 30.8123 39.4937 30.4693 39.4937 30.082C39.4937 29.6947 39.5893 29.3517 39.7807 29.053C39.972 28.7543 40.2333 28.521 40.5647 28.353C40.9007 28.185 41.2857 28.101 41.7197 28.101C42.1537 28.101 42.5387 28.185 42.8747 28.353C43.2107 28.521 43.472 28.7543 43.6587 29.053C43.85 29.3517 43.9457 29.6947 43.9457 30.082C43.9457 30.4693 43.85 30.8123 43.6587 31.111C43.472 31.4097 43.2107 31.6453 42.8747 31.818C42.5387 31.986 42.1537 32.07 41.7197 32.07ZM41.7197 30.838C41.8363 30.838 41.9413 30.81 42.0347 30.754C42.128 30.698 42.2027 30.614 42.2587 30.502C42.3147 30.3853 42.3427 30.2453 42.3427 30.082C42.3427 29.914 42.3147 29.7763 42.2587 29.669C42.2027 29.557 42.128 29.473 42.0347 29.417C41.9413 29.361 41.8363 29.333 41.7197 29.333C41.603 29.333 41.498 29.361 41.4047 29.417C41.3113 29.473 41.2367 29.557 41.1807 29.669C41.1247 29.7763 41.0967 29.914 41.0967 30.082C41.0967 30.2453 41.1247 30.3853 41.1807 30.502C41.2367 30.614 41.3113 30.698 41.4047 30.754C41.498 30.81 41.603 30.838 41.7197 30.838ZM47.1008 28.101C47.3948 28.101 47.6608 28.1617 47.8988 28.283C48.1368 28.3997 48.3235 28.584 48.4588 28.836C48.5988 29.088 48.6688 29.4147 48.6688 29.816V32H47.0868V30.089C47.0868 29.851 47.0448 29.683 46.9608 29.585C46.8768 29.4823 46.7625 29.431 46.6178 29.431C46.5105 29.431 46.4102 29.4567 46.3168 29.508C46.2282 29.5547 46.1558 29.634 46.0998 29.746C46.0485 29.858 46.0228 30.0097 46.0228 30.201V32H44.4408V28.171H45.9458V29.291L45.6448 28.969C45.7942 28.6797 45.9948 28.4627 46.2468 28.318C46.5035 28.1733 46.7882 28.101 47.1008 28.101Z" fill="#4E4E4E"/>
</g>
<defs>
<clipPath id="clip0_54_100">
<rect width="100" height="35" fill="white"/>
</clipPath>
</defs>
</svg>
